<svg xmlns="http://www.w3.org/2000/svg" xmlns:xlink="http://www.w3.org/1999/xlink" width="88" zoomAndPan="magnify" viewBox="0 0 66 66" height="88" preserveAspectRatio="xMidYMid meet" version="1.0"><defs><clipPath id="a598e27f5d"><path d="M 20.527344 6.601562 L 45.277344 6.601562 L 45.277344 59.101562 L 20.527344 59.101562 Z M 20.527344 6.601562 " clip-rule="nonzero"/></clipPath></defs><rect x="-6.6" width="79.2" fill="#ffffff" y="-6.6" height="79.2" fill-opacity="1"/><rect x="-6.6" width="79.2" fill="#000000" y="-6.6" height="79.2" fill-opacity="1"/><g clip-path="url(#a598e27f5d)"><path fill="#ffffff" d="M 39.566406 15.3125 L 45.277344 15.3125 L 45.277344 6.6875 L 37.984375 6.6875 L 37.984375 6.71875 C 28.398438 7.070312 26.421875 12.453125 26.257812 18.140625 L 26.234375 18.140625 L 26.234375 24.125 L 20.527344 24.125 L 20.527344 32.761719 L 26.234375 32.761719 L 26.234375 59.011719 L 36.480469 59.011719 L 36.480469 32.761719 L 43.828125 32.761719 L 45.277344 24.125 L 36.480469 24.125 L 36.480469 18.765625 C 36.480469 16.863281 37.753906 15.3125 39.566406 15.3125 Z M 39.566406 15.3125 " fill-opacity="1" fill-rule="nonzero"/></g></svg>