<svg xmlns="http://www.w3.org/2000/svg" xmlns:xlink="http://www.w3.org/1999/xlink" width="1080" zoomAndPan="magnify" viewBox="0 0 810 809.999993" height="1080" preserveAspectRatio="xMidYMid meet" version="1.0"><defs><clipPath id="d285c0b40f"><path d="M 70.632812 70.632812 L 739.632812 70.632812 L 739.632812 739.632812 L 70.632812 739.632812 Z M 70.632812 70.632812 " clip-rule="nonzero"/></clipPath></defs><rect x="-81" width="972" fill="#ffffff" y="-80.999999" height="971.999992" fill-opacity="1"/><rect x="-81" width="972" fill="#0d0d0d" y="-80.999999" height="971.999992" fill-opacity="1"/><g clip-path="url(#d285c0b40f)"><path fill="#ffffff" d="M 221.128906 70.632812 L 588.746094 70.632812 C 630.289062 70.632812 667.910156 87.484375 695.34375 114.917969 C 722.386719 141.960938 739.632812 179.976562 739.632812 221.128906 L 739.632812 588.746094 C 739.632812 630.289062 722.386719 667.910156 695.34375 695.34375 C 667.910156 722.386719 630.289062 739.632812 588.746094 739.632812 L 221.128906 739.632812 C 179.976562 739.632812 141.960938 722.386719 114.917969 695.34375 C 87.484375 667.910156 70.632812 630.289062 70.632812 588.746094 L 70.632812 221.128906 C 70.632812 179.976562 87.484375 141.960938 114.917969 114.917969 C 141.960938 87.484375 179.976562 70.632812 221.128906 70.632812 Z M 588.746094 130.203125 L 221.128906 130.203125 C 196.046875 130.203125 173.3125 140.394531 156.851562 156.851562 C 140.394531 173.3125 130.203125 196.046875 130.203125 221.128906 L 130.203125 588.746094 C 130.203125 613.828125 140.394531 636.558594 156.851562 653.019531 C 173.3125 669.871094 196.046875 680.0625 221.128906 680.0625 L 588.746094 680.0625 C 613.828125 680.0625 636.558594 669.871094 653.019531 653.019531 C 669.871094 636.558594 680.0625 613.828125 680.0625 588.746094 L 680.0625 221.128906 C 680.0625 196.046875 669.871094 173.3125 653.019531 156.851562 C 636.558594 140.394531 613.828125 130.203125 588.746094 130.203125 Z M 588.746094 130.203125 " fill-opacity="1" fill-rule="nonzero"/></g><path fill="#ffffff" d="M 592.664062 187.421875 C 600.894531 187.421875 608.730469 190.558594 613.828125 196.046875 C 619.3125 201.53125 622.839844 208.976562 622.839844 217.207031 C 622.839844 225.4375 619.3125 233.277344 613.828125 238.371094 C 608.730469 243.859375 600.894531 247.386719 592.664062 247.386719 C 584.433594 247.386719 576.988281 243.859375 571.5 238.371094 C 566.011719 233.277344 562.878906 225.4375 562.878906 217.207031 C 562.878906 208.976562 566.011719 201.53125 571.5 196.046875 C 576.988281 190.558594 584.433594 187.421875 592.664062 187.421875 Z M 592.664062 187.421875 " fill-opacity="1" fill-rule="nonzero"/><path fill="#ffffff" d="M 404.9375 242.683594 C 450.007812 242.683594 490.375 261.101562 519.765625 290.105469 C 549.160156 319.5 567.582031 360.257812 567.582031 404.9375 C 567.582031 450.007812 549.160156 490.375 519.765625 519.765625 C 490.375 549.160156 450.007812 567.582031 404.9375 567.582031 C 360.257812 567.582031 319.5 549.160156 290.105469 519.765625 C 261.101562 490.375 242.683594 450.007812 242.683594 404.9375 C 242.683594 360.257812 261.101562 319.5 290.105469 290.105469 C 319.5 261.101562 360.257812 242.683594 404.9375 242.683594 Z M 477.441406 332.824219 C 459.019531 314.402344 433.152344 302.644531 404.9375 302.644531 C 376.71875 302.644531 351.242188 314.402344 332.824219 332.824219 C 314.402344 351.242188 302.644531 376.71875 302.644531 404.9375 C 302.644531 433.152344 314.402344 459.019531 332.824219 477.441406 C 351.242188 495.859375 376.71875 507.226562 404.9375 507.226562 C 433.152344 507.226562 459.019531 495.859375 477.441406 477.441406 C 495.859375 459.019531 507.226562 433.152344 507.226562 404.9375 C 507.226562 376.71875 495.859375 351.242188 477.441406 332.824219 Z M 477.441406 332.824219 " fill-opacity="1" fill-rule="nonzero"/></svg>