<svg xmlns="http://www.w3.org/2000/svg" xmlns:xlink="http://www.w3.org/1999/xlink" width="1080" zoomAndPan="magnify" viewBox="0 0 810 809.999993" height="1080" preserveAspectRatio="xMidYMid meet" version="1.0"><defs><clipPath id="dd28100f48"><path d="M 315 260 L 752.945312 260 L 752.945312 765.125 L 315 765.125 Z M 315 260 " clip-rule="nonzero"/></clipPath><clipPath id="c52c1e93ee"><path d="M 68.195312 68.375 L 205 68.375 L 205 765.125 L 68.195312 765.125 Z M 68.195312 68.375 " clip-rule="nonzero"/></clipPath></defs><rect x="-81" width="972" fill="#ffffff" y="-80.999999" height="971.999992" fill-opacity="1"/><rect x="-81" width="972" fill="#0d0d0d" y="-80.999999" height="971.999992" fill-opacity="1"/><g clip-path="url(#dd28100f48)"><path fill="#ffffff" d="M 432.890625 473.039062 L 432.890625 765.027344 L 315.460938 765.027344 L 315.460938 266.699219 L 427.699219 266.699219 L 427.699219 351.375 L 433.539062 351.375 C 445 323.472656 463.273438 301.304688 488.359375 284.867188 C 513.660156 268.425781 544.914062 260.207031 582.109375 260.207031 C 616.496094 260.207031 646.445312 267.5625 671.964844 282.269531 C 697.699219 296.976562 717.597656 318.28125 731.652344 346.183594 C 745.925781 374.085938 752.957031 407.933594 752.738281 447.730469 L 752.738281 765.027344 L 635.308594 765.027344 L 635.308594 465.898438 C 635.308594 432.589844 626.660156 406.527344 609.359375 387.710938 C 592.273438 368.894531 568.59375 359.484375 538.316406 359.484375 C 517.769531 359.484375 499.5 364.027344 483.496094 373.113281 C 467.707031 381.980469 455.273438 394.847656 446.191406 411.71875 C 437.324219 428.589844 432.890625 449.027344 432.890625 473.039062 Z M 432.890625 473.039062 " fill-opacity="1" fill-rule="nonzero"/></g><g clip-path="url(#c52c1e93ee)"><path fill="#ffffff" d="M 77.273438 765.027344 L 77.273438 266.699219 L 194.703125 266.699219 L 194.703125 765.027344 Z M 136.3125 195.972656 C 117.714844 195.972656 101.710938 189.808594 88.304688 177.476562 C 74.894531 164.933594 68.191406 149.902344 68.191406 132.382812 C 68.191406 114.648438 74.894531 99.613281 88.304688 87.285156 C 101.710938 74.742188 117.714844 68.46875 136.3125 68.46875 C 155.128906 68.46875 171.132812 74.742188 184.324219 87.285156 C 197.730469 99.613281 204.4375 114.648438 204.4375 132.382812 C 204.4375 149.902344 197.730469 164.933594 184.324219 177.476562 C 171.132812 189.808594 155.128906 195.972656 136.3125 195.972656 Z M 136.3125 195.972656 " fill-opacity="1" fill-rule="nonzero"/></g></svg>