<svg xmlns="http://www.w3.org/2000/svg" xmlns:xlink="http://www.w3.org/1999/xlink" width="1080" zoomAndPan="magnify" viewBox="0 0 810 809.999993" height="1080" preserveAspectRatio="xMidYMid meet" version="1.0"><defs><clipPath id="b7f94599fa"><path d="M 218.671875 218.671875 L 591.421875 218.671875 L 591.421875 591.421875 L 218.671875 591.421875 Z M 218.671875 218.671875 " clip-rule="nonzero"/></clipPath></defs><rect x="-81" width="972" fill="#ffffff" y="-80.999999" height="971.999992" fill-opacity="1"/><rect x="-81" width="972" fill="#0d0d0d" y="-80.999999" height="971.999992" fill-opacity="1"/><g clip-path="url(#b7f94599fa)"><path fill="#ffffff" d="M 591.316406 591.316406 L 516.789062 591.316406 L 516.789062 460.90625 C 516.789062 425.132812 501.011719 405.175781 472.703125 405.175781 C 441.910156 405.175781 423.628906 425.976562 423.628906 460.90625 L 423.628906 591.316406 L 349.097656 591.316406 L 349.097656 349.097656 L 423.628906 349.097656 L 423.628906 376.339844 C 423.628906 376.339844 447.015625 335.308594 499.699219 335.308594 C 552.414062 335.308594 591.316406 367.46875 591.316406 434.03125 Z M 264.171875 310.359375 C 239.042969 310.359375 218.671875 289.824219 218.671875 264.507812 C 218.671875 239.207031 239.042969 218.671875 264.171875 218.671875 C 289.289062 218.671875 309.648438 239.207031 309.648438 264.507812 C 309.671875 289.824219 289.289062 310.359375 264.171875 310.359375 Z M 218.671875 591.316406 L 311.832031 591.316406 L 311.832031 349.097656 L 218.671875 349.097656 Z M 218.671875 591.316406 " fill-opacity="1" fill-rule="evenodd"/></g></svg>