<svg xmlns="http://www.w3.org/2000/svg" xmlns:xlink="http://www.w3.org/1999/xlink" width="1080" zoomAndPan="magnify" viewBox="0 0 810 809.999993" height="1080" preserveAspectRatio="xMidYMid meet" version="1.0"><defs><clipPath id="2b6d8d1fac"><path d="M 100.332031 180.304688 L 709.332031 180.304688 L 709.332031 629.554688 L 100.332031 629.554688 Z M 100.332031 180.304688 " clip-rule="nonzero"/></clipPath></defs><rect x="-81" width="972" fill="#ffffff" y="-80.999999" height="971.999992" fill-opacity="1"/><rect x="-81" width="972" fill="#0d0d0d" y="-80.999999" height="971.999992" fill-opacity="1"/><g clip-path="url(#2b6d8d1fac)"><path fill="#ffffff" d="M 202.050781 180.308594 C 146.210938 180.308594 100.578125 225.941406 100.578125 281.78125 L 100.578125 528.214844 C 100.578125 584.054688 146.210938 629.6875 202.050781 629.6875 L 607.941406 629.6875 C 663.777344 629.6875 709.414062 584.054688 709.414062 528.214844 L 709.414062 281.78125 C 709.414062 225.941406 663.777344 180.308594 607.941406 180.308594 Z M 202.050781 223.796875 L 607.941406 223.796875 C 640.4375 223.796875 665.925781 249.28125 665.925781 281.78125 L 665.925781 528.214844 C 665.925781 560.714844 640.4375 586.199219 607.941406 586.199219 L 202.050781 586.199219 C 169.550781 586.199219 144.066406 560.714844 144.066406 528.214844 L 144.066406 281.78125 C 144.066406 249.28125 169.550781 223.796875 202.050781 223.796875 Z M 354.9375 289.027344 C 354.210938 289.007812 353.484375 289.019531 352.761719 289.070312 C 352.035156 289.121094 351.316406 289.207031 350.601562 289.328125 C 349.882812 289.453125 349.175781 289.609375 348.476562 289.800781 C 347.773438 289.996094 347.085938 290.222656 346.40625 290.484375 C 345.730469 290.746094 345.066406 291.042969 344.421875 291.371094 C 343.773438 291.703125 343.140625 292.0625 342.53125 292.453125 C 341.917969 292.84375 341.328125 293.265625 340.757812 293.71875 C 340.1875 294.167969 339.644531 294.648438 339.121094 295.152344 C 338.601562 295.660156 338.105469 296.1875 337.636719 296.746094 C 337.167969 297.300781 336.730469 297.878906 336.316406 298.476562 C 335.90625 299.078125 335.527344 299.695312 335.179688 300.332031 C 334.832031 300.96875 334.515625 301.625 334.230469 302.292969 C 333.949219 302.960938 333.699219 303.644531 333.484375 304.335938 C 333.269531 305.03125 333.089844 305.734375 332.945312 306.445312 C 332.800781 307.160156 332.695312 307.875 332.621094 308.597656 C 332.550781 309.320312 332.511719 310.046875 332.515625 310.773438 L 332.515625 499.222656 C 332.511719 499.890625 332.539062 500.554688 332.59375 501.21875 C 332.652344 501.886719 332.742188 502.546875 332.859375 503.203125 C 332.976562 503.859375 333.125 504.507812 333.304688 505.152344 C 333.484375 505.792969 333.691406 506.429688 333.925781 507.050781 C 334.164062 507.675781 334.429688 508.289062 334.722656 508.886719 C 335.015625 509.484375 335.335938 510.070312 335.679688 510.640625 C 336.027344 511.210938 336.398438 511.761719 336.796875 512.300781 C 337.195312 512.835938 337.617188 513.351562 338.0625 513.847656 C 338.507812 514.34375 338.976562 514.820312 339.464844 515.273438 C 339.953125 515.730469 340.460938 516.160156 340.988281 516.566406 C 341.519531 516.972656 342.066406 517.355469 342.628906 517.714844 C 343.191406 518.070312 343.769531 518.398438 344.367188 518.703125 C 344.960938 519.007812 345.566406 519.28125 346.1875 519.53125 C 346.804688 519.777344 347.433594 519.996094 348.074219 520.1875 C 348.714844 520.375 349.363281 520.535156 350.015625 520.667969 C 350.671875 520.796875 351.328125 520.898438 351.992188 520.964844 C 354.183594 521.203125 356.363281 521.109375 358.523438 520.683594 C 360.6875 520.261719 362.738281 519.523438 364.675781 518.472656 L 538.628906 424.25 C 539.488281 423.785156 540.3125 423.265625 541.105469 422.691406 C 541.894531 422.117188 542.640625 421.492188 543.347656 420.816406 C 544.050781 420.140625 544.707031 419.421875 545.316406 418.65625 C 545.925781 417.894531 546.480469 417.09375 546.980469 416.253906 C 547.480469 415.417969 547.921875 414.546875 548.304688 413.648438 C 548.6875 412.75 549.011719 411.832031 549.269531 410.890625 C 549.53125 409.949219 549.726562 408.996094 549.855469 408.027344 C 549.988281 407.058594 550.050781 406.085938 550.050781 405.109375 C 550.050781 404.132812 549.988281 403.160156 549.855469 402.195312 C 549.726562 401.226562 549.53125 400.273438 549.269531 399.332031 C 549.011719 398.390625 548.6875 397.46875 548.304688 396.570312 C 547.921875 395.671875 547.480469 394.804688 546.980469 393.964844 C 546.480469 393.128906 545.925781 392.328125 545.316406 391.5625 C 544.707031 390.796875 544.050781 390.078125 543.347656 389.402344 C 542.640625 388.726562 541.894531 388.101562 541.105469 387.527344 C 540.3125 386.953125 539.488281 386.433594 538.628906 385.96875 L 364.675781 291.746094 C 361.648438 290.066406 358.402344 289.160156 354.9375 289.027344 Z M 376.003906 347.464844 L 482.457031 404.996094 L 376.003906 462.753906 Z M 376.003906 347.464844 " fill-opacity="1" fill-rule="nonzero"/></g></svg>